<?xml version="1.0" encoding="UTF-8"?>
<svg id="Layer_2" data-name="Layer 2" xmlns="http://www.w3.org/2000/svg" width="2396.75" height="464.25" viewBox="0 0 2396.75 464.25">
  <g id="Layer_1-2" data-name="Layer 1">
    <g>
      <path d="M0,358.74V0h110.58c113.11,0,176.84,64.57,176.84,179.36s-62.89,179.38-173.04,179.38H0ZM52.76,52.75v253.23h61.62c75.55,0,119.86-46.84,119.86-126.61s-44.31-126.61-123.66-126.61h-57.82Z" fill="#284b63"/>
      <path d="M521.7,317.38c-10.97,25.74-45.16,43.89-80.61,43.89-73.01,0-120.71-51.49-120.71-129.58s47.27-129.13,120.71-129.13c35.03,0,69.64,18.14,80.61,44.31v-41.36h52.76v253.23h-52.76v-41.36ZM447.84,308.52c43.89,0,74.28-30.82,73.86-76.4,0-45.15-31.23-76.81-74.28-76.81s-74.28,30.39-74.28,76.38,30.39,76.83,74.7,76.83Z" fill="#284b63"/>
      <path d="M749.66,384.06c-19.84,51.07-29.54,74.71-85.25,74.71h-17.3v-51.92h12.66c16.88,0,27.43-5.91,35.87-27.86l7.6-20.26-97.92-253.23h56.13l70.06,180.64,70.06-180.64h56.13l-108.04,278.55Z" fill="#284b63"/>
      <path d="M884.33,358.74V0h52.76v223.26l100.03-117.74h58.24l-100.03,126.61,109.31,126.61h-67.53l-100.03-117.74v117.74h-52.76Z" fill="#284b63"/>
      <path d="M1347.78,281.08c-17.3,47.27-62.04,79.77-112.69,79.77-73.01,0-124.5-53.61-124.5-129.58s53.18-129.15,123.24-129.15,123.24,55.28,123.24,127.87c0,6.75-.42,13.93-1.69,20.26h-190.34c6.75,36.73,33.76,60.77,69.64,60.77,26.17,0,47.27-12.23,56.98-29.96h56.13ZM1302.62,211.87c-6.75-35.45-33.76-59.93-68.79-59.93s-61.62,24.05-68.79,59.93h137.59Z" fill="#284b63"/>
      <path d="M1629.33,281.08c-17.3,47.27-62.04,79.77-112.69,79.77-73.01,0-124.5-53.61-124.5-129.58s53.18-129.15,123.24-129.15,123.24,55.28,123.24,127.87c0,6.75-.42,13.93-1.69,20.26h-190.34c6.75,36.73,33.76,60.77,69.64,60.77,26.17,0,47.27-12.23,56.98-29.96h56.13ZM1584.17,211.87c-6.75-35.45-33.76-59.93-68.79-59.93s-61.62,24.05-68.79,59.93h137.59Z" fill="#284b63"/>
      <path d="M1730.67,146.87c10.97-25.74,45.16-43.89,80.61-43.89,73.01,0,120.71,51.49,120.71,129.58s-47.27,129.13-120.71,129.13c-35.03,0-69.64-18.14-80.61-44.31v146.87h-52.76V105.51h52.76v41.36ZM1804.53,155.73c-43.89,0-74.28,30.82-73.86,76.4,0,45.15,31.23,76.81,74.28,76.81s74.28-30.39,74.28-76.38-30.39-76.83-74.7-76.83Z" fill="#284b63"/>
      <path d="M2201.72,281.08c-17.3,47.27-62.04,79.77-112.69,79.77-73.01,0-124.5-53.61-124.5-129.58s53.18-129.15,123.24-129.15,123.24,55.28,123.24,127.87c0,6.75-.42,13.93-1.69,20.26h-190.34c6.75,36.73,33.76,60.77,69.64,60.77,26.17,0,47.27-12.23,56.98-29.96h56.13ZM2156.56,211.87c-6.75-35.45-33.76-59.93-68.79-59.93s-61.62,24.05-68.79,59.93h137.59Z" fill="#284b63"/>
      <path d="M2396.75,155.31c-59.93-.41-93.69,29.11-93.69,82.31v121.12h-52.76V105.51h52.76v46.84c19.41-36.71,58.66-49.79,93.69-49.79v52.75Z" fill="#284b63"/>
    </g>
  </g>
</svg>