<?xml version="1.0" encoding="UTF-8"?>
<svg id="Layer_2" data-name="Layer 2" xmlns="http://www.w3.org/2000/svg" width="1335.18" height="1335.19" viewBox="0 0 1335.18 1335.19">
  <g id="Layer_1-2" data-name="Layer 1">
    <g>
      <path d="M1008.72,1305.12c-227.42,40.09-454.84,40.09-682.26,0-150.97-26.61-269.77-145.42-296.39-296.39-40.09-227.43-40.09-454.85,0-682.27C56.68,175.49,175.49,56.69,326.45,30.07c227.43-40.1,454.85-40.1,682.28,0,150.97,26.62,269.77,145.42,296.38,296.39,40.09,227.42,40.09,454.85,0,682.27-26.61,150.97-145.42,269.77-296.39,296.39Z" fill="#284b63"/>
      <g>
        <path d="M987.16,949.39c-4.54-38.67-23.65-74.34-51.24-101.93l-179.98-179.76-88.19,88.19,182.75,182.97c8.48,8.48,13.19,19.55,13.19,31.52s-4.71,23.1-13.19,31.52c-8.42,8.48-19.66,12.96-31.52,12.96h-302.68c-12.02,0-23.1-4.49-31.52-12.96-8.48-8.42-13.13-19.67-13.13-31.52s4.65-23.04,13.13-31.52l182.81-182.97-88.25-88.36-182.75,182.97c-32.13,31.91-49.75,74.51-49.75,119.88,0,52.18,23.43,100.99,65.48,133.84,30.8,23.99,69.25,35.62,108.3,35.62h298.36v-.17c45.43,0,88.03-17.45,119.93-49.52,36.78-37,54.62-87.86,48.25-140.76Z" fill="#fff"/>
        <path d="M922.95,230.85c-30.74-24.04-69.41-35.51-108.3-35.51h-298.36c-22.71,0-44.65,4.32-65.09,12.8-20.28,8.42-38.89,20.83-54.84,36.95-36.78,36.78-54.57,87.8-48.42,140.76,4.71,38.67,23.88,74.12,51.46,101.71l179.93,179.98,88.25-88.25-182.81-182.97c-8.48-8.42-13.13-19.67-13.13-31.52s4.65-23.04,13.13-31.52c8.42-8.42,19.5-12.96,31.52-12.96h299.36c1.11-.11,2.22-.17,3.32-.17,11.86,0,23.1,4.71,31.52,13.13,8.48,8.48,13.19,19.72,13.19,31.52s-4.71,23.1-13.19,31.52l-182.92,182.97,88.36,88.41,182.81-182.97c32.07-31.91,49.69-74.51,49.69-119.93,0-52.35-23.6-100.93-65.48-133.95Z" fill="#fff"/>
      </g>
    </g>
  </g>
</svg>