<?xml version="1.0" encoding="UTF-8"?>
<svg id="Layer_2" data-name="Layer 2" xmlns="http://www.w3.org/2000/svg" width="1335.17" height="1335.19" viewBox="0 0 1335.17 1335.19">
  <g id="Layer_1-2" data-name="Layer 1">
    <g>
      <path d="M850.49,396.33l-182.91,182.97-182.81-182.97c-8.47-8.42-13.13-19.67-13.13-31.52s4.66-23.05,13.13-31.52c8.42-8.42,19.5-12.97,31.52-12.97h299.36c1.11-.11,2.22-.16,3.32-.16,11.86,0,23.11,4.71,31.52,13.13,8.48,8.47,13.19,19.72,13.19,31.52s-4.71,23.1-13.19,31.52Z" fill="#fff"/>
      <path d="M1305.11,326.46c-26.61-150.97-145.42-269.77-296.38-296.39-227.43-40.1-454.85-40.1-682.28,0C175.49,56.69,56.68,175.49,30.07,326.46c-40.09,227.42-40.09,454.84,0,682.27,26.61,150.97,145.42,269.77,296.39,296.39,227.42,40.09,454.84,40.09,682.26,0,150.97-26.62,269.78-145.42,296.39-296.39,40.09-227.43,40.09-454.85,0-682.27ZM935.92,847.46c27.58,27.59,46.69,63.27,51.24,101.93,6.37,52.9-11.47,103.76-48.25,140.76-31.91,32.08-74.51,49.53-119.94,49.53v.16h-298.36c-39.05,0-77.5-11.63-108.3-35.62-42.04-32.85-65.48-81.65-65.48-133.83,0-45.37,17.62-87.97,49.75-119.88l182.75-182.97-179.92-179.99c-27.59-27.58-46.76-63.04-51.47-101.7-6.15-52.96,11.64-103.98,48.42-140.76,15.95-16.12,34.57-28.53,54.84-36.95,20.44-8.48,42.38-12.8,65.09-12.8h298.36c38.89,0,77.56,11.47,108.3,35.51,41.88,33.02,65.48,81.6,65.48,133.95,0,45.42-17.61,88.02-49.69,119.93l-182.81,182.97,179.99,179.76ZM579.33,667.55l88.25,88.35-182.81,182.98c-8.47,8.47-13.13,19.55-13.13,31.52s4.66,23.1,13.13,31.52c8.42,8.47,19.5,12.96,31.52,12.96h302.68c11.86,0,23.11-4.49,31.52-12.96,8.48-8.42,13.19-19.67,13.19-31.52s-4.71-23.05-13.19-31.52l-182.75-182.98,88.19-88.19-88.35-88.41-88.25,88.25Z" fill="#fff"/>
    </g>
  </g>
</svg>