<?xml version="1.0" encoding="UTF-8"?>
<svg id="Layer_2" data-name="Layer 2" xmlns="http://www.w3.org/2000/svg" width="1626.69" height="1375.08" viewBox="0 0 1626.69 1375.08">
  <g id="Layer_1-2" data-name="Layer 1">
    <g>
      <g>
        <path d="M0,1303.48v-243.49h75.05c76.77,0,120.02,43.83,120.02,121.74s-42.68,121.74-117.44,121.74H0ZM35.81,1095.8v171.87h41.82c51.27,0,81.35-31.79,81.35-85.93s-30.08-85.93-83.93-85.93h-39.24Z" fill="#fff"/>
        <path d="M354.08,1275.4c-7.45,17.48-30.65,29.79-54.71,29.79-49.56,0-81.92-34.94-81.92-87.93s32.08-87.64,81.92-87.64c23.78,0,47.26,12.31,54.71,30.06v-28.06h35.81v171.87h-35.81v-28.08ZM303.95,1269.4c29.79,0,50.41-20.92,50.13-51.85,0-30.64-21.2-52.14-50.41-52.14s-50.41,20.62-50.41,51.85,20.62,52.14,50.7,52.14Z" fill="#fff"/>
        <path d="M508.8,1320.67c-13.46,34.66-20.05,50.71-57.86,50.71h-11.74v-35.25h8.59c11.46,0,18.62-4,24.35-18.9l5.16-13.75-66.46-171.87h38.1l47.55,122.6,47.55-122.6h38.1l-73.33,189.05Z" fill="#fff"/>
        <path d="M600.2,1303.48v-243.49h35.81v151.54l67.89-79.91h39.53l-67.89,85.93,74.19,85.93h-45.83l-67.89-79.91v79.91h-35.81Z" fill="#fff"/>
        <path d="M914.75,1250.78c-11.74,32.08-42.11,54.14-76.48,54.14-49.56,0-84.5-36.39-84.5-87.95s36.09-87.64,83.64-87.64,83.64,37.52,83.64,86.79c0,4.58-.29,9.46-1.15,13.75h-129.19c4.58,24.92,22.92,41.25,47.26,41.25,17.76,0,32.08-8.31,38.67-20.33h38.1ZM884.1,1203.8c-4.58-24.06-22.92-40.69-46.69-40.69s-41.82,16.33-46.69,40.69h93.38Z" fill="#fff"/>
        <path d="M1105.83,1250.78c-11.74,32.08-42.11,54.14-76.48,54.14-49.56,0-84.5-36.39-84.5-87.95s36.09-87.64,83.64-87.64,83.64,37.52,83.64,86.79c0,4.58-.29,9.46-1.15,13.75h-129.19c4.58,24.92,22.92,41.25,47.26,41.25,17.76,0,32.08-8.31,38.67-20.33h38.1ZM1075.18,1203.8c-4.58-24.06-22.92-40.69-46.69-40.69s-41.82,16.33-46.69,40.69h93.38Z" fill="#fff"/>
        <path d="M1174.62,1159.68c7.45-17.46,30.65-29.79,54.71-29.79,49.56,0,81.92,34.96,81.92,87.95s-32.08,87.64-81.92,87.64c-23.78,0-47.26-12.31-54.71-30.08v99.68h-35.81v-243.47h35.81v28.06ZM1224.74,1165.7c-29.79,0-50.41,20.92-50.13,51.85,0,30.64,21.2,52.12,50.41,52.12s50.41-20.62,50.41-51.83-20.62-52.14-50.7-52.14Z" fill="#fff"/>
        <path d="M1494.32,1250.78c-11.74,32.08-42.11,54.14-76.48,54.14-49.56,0-84.5-36.39-84.5-87.95s36.09-87.64,83.64-87.64,83.64,37.52,83.64,86.79c0,4.58-.29,9.46-1.15,13.75h-129.19c4.58,24.92,22.92,41.25,47.26,41.25,17.76,0,32.08-8.31,38.67-20.33h38.1ZM1463.67,1203.8c-4.58-24.06-22.92-40.69-46.69-40.69s-41.82,16.33-46.69,40.69h93.38Z" fill="#fff"/>
        <path d="M1626.69,1165.41c-40.68-.27-63.59,19.77-63.59,55.87v82.21h-35.81v-171.87h35.81v31.79c13.18-24.92,39.82-33.79,63.59-33.79v35.79Z" fill="#fff"/>
      </g>
      <g>
        <path d="M1130.8,749.06c-4.51-38.41-23.5-73.85-50.9-101.25l-178.79-178.57-87.61,87.61,181.54,181.76c8.42,8.42,13.1,19.43,13.1,31.31s-4.68,22.95-13.1,31.31c-8.36,8.42-19.53,12.88-31.31,12.88h-300.68c-11.94,0-22.95-4.46-31.31-12.88-8.42-8.36-13.04-19.54-13.04-31.31s4.62-22.89,13.04-31.31l181.6-181.76-87.66-87.77-181.54,181.76c-31.92,31.7-49.42,74.01-49.42,119.08,0,51.84,23.28,100.32,65.05,132.95,30.59,23.83,68.79,35.38,107.58,35.38h296.39v-.17c45.13,0,87.44-17.33,119.14-49.2,36.54-36.76,54.26-87.28,47.93-139.83Z" fill="#fff"/>
        <path d="M1067.02,35.27C1036.48,11.39,998.07,0,959.44,0h-296.39c-22.56,0-44.35,4.29-64.66,12.71-20.14,8.36-38.63,20.69-54.48,36.7-36.54,36.54-54.2,87.22-48.1,139.83,4.68,38.41,23.72,73.63,51.12,101.03l178.73,178.79,87.66-87.66-181.6-181.76c-8.42-8.36-13.04-19.54-13.04-31.31s4.62-22.89,13.04-31.31c8.36-8.36,19.37-12.88,31.31-12.88h297.38c1.1-.11,2.2-.17,3.3-.17,11.78,0,22.95,4.68,31.31,13.04,8.42,8.42,13.1,19.59,13.1,31.31s-4.68,22.95-13.1,31.31l-181.7,181.76,87.77,87.83,181.6-181.76c31.86-31.7,49.36-74.01,49.36-119.14,0-52-23.44-100.26-65.05-133.06Z" fill="#fff"/>
      </g>
    </g>
  </g>
</svg>